<?xml version="1.0" encoding="utf-8"?>
<!-- Generator: Adobe Illustrator 16.0.0, SVG Export Plug-In . SVG Version: 6.00 Build 0)  -->
<!DOCTYPE svg PUBLIC "-//W3C//DTD SVG 1.1//EN" "http://www.w3.org/Graphics/SVG/1.1/DTD/svg11.dtd">
<svg version="1.1" id="Layer_1" xmlns="http://www.w3.org/2000/svg" xmlns:xlink="http://www.w3.org/1999/xlink" x="0px" y="0px"
	 width="230.334px" height="236.166px" viewBox="0 0 230.334 236.166" enable-background="new 0 0 230.334 236.166"
	 xml:space="preserve">
<g>
	<g>
		<polyline fill="#FFDE1B" points="98.442,194.333 90.417,206.212 66.068,206.212 66.068,194.333 98.175,194.333 		"/>
		<polygon fill="#EC2224" points="86.562,173.859 54.215,173.859 54.215,161.953 86.562,161.953 86.562,167.907 		"/>
		<polygon fill="#2FB357" points="66.185,173.866 66.185,206.212 54.215,206.212 54.215,173.866 60.2,173.866 		"/>
		
			<radialGradient id="SVGID_1_" cx="-19.2251" cy="208.6279" r="12.1882" gradientTransform="matrix(0.9964 0 0 -1.0023 101.468 409.3798)" gradientUnits="userSpaceOnUse">
			<stop  offset="0" style="stop-color:#FFCE4E"/>
			<stop  offset="1" style="stop-color:#F2C034"/>
		</radialGradient>
		<polyline fill="url(#SVGID_1_)" points="98.44,194.333 66.185,206.212 66.185,194.333 		"/>
		<polyline fill="#46AEE2" points="86.562,161.957 98.442,169.984 98.442,194.333 86.562,194.333 86.562,162.225 		"/>
		<polyline fill="#406FB5" points="86.562,161.953 98.442,194.333 86.562,194.333 		"/>
		<polyline fill="#B43328" points="54.215,173.859 86.562,161.953 86.562,173.859 		"/>
		
			<radialGradient id="SVGID_2_" cx="-42.2998" cy="217.9648" r="12.1957" gradientTransform="matrix(1 0 0 -1 102.5 408)" gradientUnits="userSpaceOnUse">
			<stop  offset="0" style="stop-color:#01A760"/>
			<stop  offset="1" style="stop-color:#018F4B"/>
		</radialGradient>
		<polyline fill="url(#SVGID_2_)" points="66.185,206.212 54.215,173.859 66.185,173.859 		"/>
	</g>
	<rect x="91.906" y="188.409" fill="none" width="43.604" height="17.803"/>
	<text transform="matrix(1 0 0 1 100.8691 205.4316)" fill="#E6E6E4" font-family="'OpenSans-Extrabold'" font-size="19.8648">EV</text>
	<g>
		
			<radialGradient id="SVGID_3_" cx="50.1309" cy="241.4531" r="18.3452" gradientTransform="matrix(1 0 0 -1 102.5 408)" gradientUnits="userSpaceOnUse">
			<stop  offset="0" style="stop-color:#FFCE4E"/>
			<stop  offset="1" style="stop-color:#F2C034"/>
		</radialGradient>
		<polyline fill="url(#SVGID_3_)" points="127.261,171.966 137.292,161.12 178.001,161.12 167.968,171.975 		"/>
		
			<radialGradient id="SVGID_4_" cx="42.7246" cy="229.2061" r="13.5868" gradientTransform="matrix(1 0 0 -1 102.5 408)" gradientUnits="userSpaceOnUse">
			<stop  offset="0" style="stop-color:#01A760"/>
			<stop  offset="1" style="stop-color:#018F4B"/>
		</radialGradient>
		<polyline fill="url(#SVGID_4_)" points="127.261,171.975 150.659,171.975 163.188,177.297 155.138,185.613 		"/>
		<polyline fill="#B43328" points="147.724,177.312 163.208,177.312 152.812,188.071 133.839,188.071 		"/>
		<polyline fill="#406FB5" points="133.839,188.071 145.819,188.071 145.819,205.081 133.839,205.081 		"/>
	</g>
	<rect x="141.251" y="187.674" fill="none" width="43.604" height="17.805"/>
	<text transform="matrix(1 0 0 1 147.9805 204.6963)" fill="#E6E6E4" font-family="'OpenSans-Extrabold'" font-size="19.8648">air</text>
	<rect x="54.216" y="211.846" fill="none" width="120.033" height="8.543"/>
	<text transform="matrix(1 0 0 1 26.6592 220.3887)" fill="#E6E6E4" font-family="'OpenSans-Semibold'" font-size="15">GDG Korea DevFair 2014</text>
</g>
<g>
	<rect x="92.412" y="114.271" fill="none" width="44.74" height="18.269"/>
	<text transform="matrix(1 0 0 1 101.6084 131.7354)" fill="#808184" font-family="'OpenSans-Extrabold'" font-size="20.3817">EV</text>
	<rect x="143.039" y="113.518" fill="none" width="44.738" height="18.268"/>
	<text transform="matrix(1 0 0 1 149.9434 130.9824)" fill="#808184" font-family="'OpenSans-Extrabold'" font-size="20.3817">air</text>
	<rect x="52.937" y="139.48" fill="none" width="123.155" height="8.764"/>
	<text transform="matrix(1 0 0 1 27.3262 146.2598)" fill="#58595B" font-family="'OpenSans-Semibold'" font-size="15">GDG Korea DevFair 2014</text>
	<g>
		<polyline fill="#808184" points="99.291,120.379 91.055,132.567 66.075,132.567 66.075,120.379 99.018,120.379 		"/>
		<path fill="#FFFFFF" d="M79.713,87.158"/>
		<polygon fill="#808184" points="87.101,99.373 53.915,99.373 53.915,87.158 87.101,87.158 87.101,93.266 		"/>
		<polygon fill="#808184" points="66.193,99.381 66.193,132.567 53.915,132.567 53.915,99.381 60.054,99.381 		"/>
		<polyline fill="#808184" points="87.101,87.162 99.291,95.398 99.291,120.379 87.101,120.379 87.101,87.436 		"/>
	</g>
	<g>
		<polyline fill="#404041" points="127.547,97.569 137.723,86.566 179.024,86.566 168.847,97.578 		"/>
		<polyline fill="#808184" points="127.547,97.578 151.285,97.578 163.996,102.979 155.828,111.416 		"/>
		<polyline fill="#404041" points="148.308,102.994 164.015,102.994 153.47,113.908 134.221,113.908 		"/>
		<polyline fill="#808184" points="134.221,113.908 148.27,113.908 148.27,131.166 134.221,131.166 		"/>
	</g>
	
		<rect x="58.906" y="92.175" transform="matrix(-0.9385 0.3452 -0.3452 -0.9385 186.3928 186.5414)" fill="#404041" width="35.362" height="35.384"/>
	<rect x="66.135" y="99.38" fill="#FFFFFF" width="20.908" height="20.981"/>
</g>
<g>
	<g>
		<polyline fill="#FFDE1B" points="97.616,44.663 89.59,56.542 65.243,56.542 65.243,44.663 97.349,44.663 		"/>
		<polygon fill="#EC2224" points="85.735,24.189 53.39,24.189 53.39,12.283 85.735,12.283 85.735,18.238 		"/>
		<polygon fill="#2FB357" points="65.358,24.196 65.358,56.542 53.39,56.542 53.39,24.196 59.374,24.196 		"/>
		
			<radialGradient id="SVGID_5_" cx="-20.0542" cy="357.9551" r="12.1882" gradientTransform="matrix(0.9964 0 0 -1.0023 101.468 409.3798)" gradientUnits="userSpaceOnUse">
			<stop  offset="0" style="stop-color:#FFCE4E"/>
			<stop  offset="1" style="stop-color:#F2C034"/>
		</radialGradient>
		<polyline fill="url(#SVGID_5_)" points="97.614,44.663 65.358,56.542 65.358,44.663 		"/>
		<polyline fill="#46AEE2" points="85.735,12.287 97.616,20.314 97.616,44.663 85.735,44.663 85.735,12.555 		"/>
		<polyline fill="#406FB5" points="85.735,12.283 97.616,44.663 85.735,44.663 		"/>
		<polyline fill="#B43328" points="53.39,24.189 85.735,12.283 85.735,24.189 		"/>
		
			<radialGradient id="SVGID_6_" cx="-43.126" cy="367.6348" r="12.1957" gradientTransform="matrix(1 0 0 -1 102.5 408)" gradientUnits="userSpaceOnUse">
			<stop  offset="0" style="stop-color:#01A760"/>
			<stop  offset="1" style="stop-color:#018F4B"/>
		</radialGradient>
		<polyline fill="url(#SVGID_6_)" points="65.358,56.542 53.39,24.189 65.358,24.189 		"/>
	</g>
	<rect x="91.079" y="38.739" fill="none" width="43.604" height="17.803"/>
	<text transform="matrix(1 0 0 1 100.043 55.7617)" fill="#4E4E4E" font-family="'OpenSans-Extrabold'" font-size="19.8648">EV</text>
	<g>
		
			<radialGradient id="SVGID_7_" cx="49.3042" cy="391.123" r="18.345" gradientTransform="matrix(1 0 0 -1 102.5 408)" gradientUnits="userSpaceOnUse">
			<stop  offset="0" style="stop-color:#FFCE4E"/>
			<stop  offset="1" style="stop-color:#F2C034"/>
		</radialGradient>
		<polyline fill="url(#SVGID_7_)" points="126.435,22.296 136.466,11.45 177.174,11.45 167.143,22.304 		"/>
		
			<radialGradient id="SVGID_8_" cx="41.8989" cy="378.877" r="13.5872" gradientTransform="matrix(1 0 0 -1 102.5 408)" gradientUnits="userSpaceOnUse">
			<stop  offset="0" style="stop-color:#01A760"/>
			<stop  offset="1" style="stop-color:#018F4B"/>
		</radialGradient>
		<polyline fill="url(#SVGID_8_)" points="126.435,22.304 149.832,22.304 162.363,27.628 154.312,35.944 		"/>
		<polyline fill="#B43328" points="146.897,27.643 162.382,27.643 151.986,38.401 133.013,38.401 		"/>
		<polyline fill="#406FB5" points="133.013,38.401 144.994,38.401 144.994,55.411 133.013,55.411 		"/>
	</g>
	<rect x="140.424" y="38.005" fill="none" width="43.604" height="17.803"/>
	<text transform="matrix(1 0 0 1 147.1543 55.0264)" fill="#4E4E4E" font-family="'OpenSans-Extrabold'" font-size="19.8648">air</text>
	<rect x="59.168" y="63.151" fill="none" width="120.033" height="8.541"/>
	<text transform="matrix(1 0 0 1 25.6592 70.3589)" fill="#4E4E4E" font-family="'OpenSans-Semibold'" font-size="15">GDG Korea DevFair 2014</text>
</g>
</svg>
