<?xml version="1.0" encoding="utf-8"?>
<!-- Generator: Adobe Illustrator 16.0.0, SVG Export Plug-In . SVG Version: 6.00 Build 0)  -->
<!DOCTYPE svg PUBLIC "-//W3C//DTD SVG 1.1//EN" "http://www.w3.org/Graphics/SVG/1.1/DTD/svg11.dtd">
<svg version="1.1" id="Layer_1" xmlns="http://www.w3.org/2000/svg" xmlns:xlink="http://www.w3.org/1999/xlink" x="0px" y="0px"
	 width="185px" height="188px" viewBox="0 0 185 188" enable-background="new 0 0 185 188" xml:space="preserve">
<g>
	<g>
		<polyline fill="#FFDE1B" points="79,160.792 70.974,172.671 46.626,172.671 46.626,160.792 78.733,160.792 		"/>
		<polygon fill="#EC2224" points="67.119,140.318 34.773,140.318 34.773,128.412 67.119,128.412 67.119,134.366 		"/>
		<polygon fill="#2FB357" points="46.742,140.325 46.742,172.671 34.773,172.671 34.773,140.325 40.758,140.325 		"/>
		
			<radialGradient id="SVGID_1_" cx="63.0234" cy="166.6572" r="12.1885" gradientTransform="matrix(0.9964 0 0 1.0023 0.073 -0.3085)" gradientUnits="userSpaceOnUse">
			<stop  offset="0" style="stop-color:#FFCE4E"/>
			<stop  offset="1" style="stop-color:#F2C034"/>
		</radialGradient>
		<polyline fill="url(#SVGID_1_)" points="78.998,160.792 46.742,172.671 46.742,160.792 		"/>
		<polyline fill="#46AEE2" points="67.119,128.416 79,136.443 79,160.792 67.119,160.792 67.119,128.684 		"/>
		<polyline fill="#406FB5" points="67.119,128.412 79,160.792 67.119,160.792 		"/>
		<polyline fill="#B43328" points="34.773,140.318 67.119,128.412 67.119,140.318 		"/>
		<radialGradient id="SVGID_2_" cx="40.7578" cy="156.4941" r="12.1962" gradientUnits="userSpaceOnUse">
			<stop  offset="0" style="stop-color:#01A760"/>
			<stop  offset="1" style="stop-color:#018F4B"/>
		</radialGradient>
		<polyline fill="url(#SVGID_2_)" points="46.742,172.671 34.773,140.318 46.742,140.318 		"/>
	</g>
	<rect x="72.464" y="154.868" fill="none" width="43.604" height="17.803"/>
	<text transform="matrix(1 0 0 1 81.4268 171.8906)" fill="#E6E6E4" font-family="'OpenSans-Extrabold'" font-size="19.8648">EV</text>
	<g>
		<radialGradient id="SVGID_3_" cx="133.1875" cy="133.0059" r="18.3452" gradientUnits="userSpaceOnUse">
			<stop  offset="0" style="stop-color:#FFCE4E"/>
			<stop  offset="1" style="stop-color:#F2C034"/>
		</radialGradient>
		<polyline fill="url(#SVGID_3_)" points="107.818,138.425 117.85,127.579 158.558,127.579 148.526,138.433 		"/>
		<radialGradient id="SVGID_4_" cx="125.7822" cy="145.252" r="13.5871" gradientUnits="userSpaceOnUse">
			<stop  offset="0" style="stop-color:#01A760"/>
			<stop  offset="1" style="stop-color:#018F4B"/>
		</radialGradient>
		<polyline fill="url(#SVGID_4_)" points="107.818,138.433 131.217,138.433 143.746,143.756 135.695,152.072 		"/>
		<polyline fill="#B43328" points="128.281,143.771 143.766,143.771 133.369,154.53 114.396,154.53 		"/>
		<polyline fill="#406FB5" points="114.396,154.53 126.377,154.53 126.377,171.54 114.396,171.54 		"/>
	</g>
	<rect x="121.808" y="154.133" fill="none" width="43.604" height="17.804"/>
	<text transform="matrix(1 0 0 1 128.5381 171.1553)" fill="#E6E6E4" font-family="'OpenSans-Extrabold'" font-size="19.8648">air</text>
	<rect x="34.774" y="178.305" fill="none" width="120.033" height="8.542"/>
	<text transform="matrix(1 0 0 1 53.9316 184.2627)" fill="#E6E6E4" font-family="'OpenSans-Semibold'" font-size="6.9527">GDG Korea DevFair 2014</text>
</g>
<g>
	<rect x="73.808" y="91.671" fill="none" width="44.741" height="18.269"/>
	
		<text transform="matrix(1 0 0 1 83.0049 109.1357)" fill="#808184" font-family="'OpenSans-Extrabold'" font-size="20.3817" letter-spacing="1">EV</text>
	<rect x="124.435" y="90.918" fill="none" width="44.739" height="18.267"/>
	
		<text transform="matrix(1 0 0 1 131.3398 108.3828)" fill="#808184" font-family="'OpenSans-Extrabold'" font-size="20.3817" letter-spacing="1">air</text>
	<rect x="34.333" y="116.881" fill="none" width="123.155" height="8.764"/>
	<text transform="matrix(1 0 0 1 53.9883 122.9941)" fill="#58595B" font-family="'OpenSans-Semibold'" font-size="7.1336">GDG Korea DevFair 2014</text>
	<g>
		<polyline fill="#808184" points="80.687,97.779 72.451,109.968 47.471,109.968 47.471,97.779 80.414,97.779 		"/>
		<path fill="#FFFFFF" d="M61.11,64.558"/>
		<polygon fill="#808184" points="68.497,76.774 35.311,76.774 35.311,64.558 68.497,64.558 68.497,70.666 		"/>
		<polygon fill="#808184" points="47.59,76.781 47.59,109.968 35.311,109.968 35.311,76.781 41.45,76.781 		"/>
		<polyline fill="#808184" points="68.497,64.562 80.687,72.799 80.687,97.779 68.497,97.779 68.497,64.836 		"/>
	</g>
	<g>
		<polyline fill="#404041" points="108.943,74.97 119.119,63.967 160.421,63.967 150.243,74.978 		"/>
		<polyline fill="#808184" points="108.943,74.978 132.682,74.978 145.392,80.379 137.224,88.816 		"/>
		<polyline fill="#404041" points="129.704,80.395 145.411,80.395 134.866,91.309 115.617,91.309 		"/>
		<polyline fill="#808184" points="115.617,91.309 129.666,91.309 129.666,108.566 115.617,108.566 		"/>
	</g>
	
		<rect x="40.303" y="69.578" transform="matrix(0.9385 -0.3452 0.3452 0.9385 -26.5609 25.3802)" fill="#404041" width="35.363" height="35.385"/>
	<rect x="47.531" y="76.78" fill="#FFFFFF" width="20.909" height="20.982"/>
</g>
<g>
	<g>
		<polyline fill="#FFDE1B" points="79.56,35.776 71.533,47.655 47.186,47.655 47.186,35.776 79.292,35.776 		"/>
		<polygon fill="#EC2224" points="67.679,15.303 35.333,15.303 35.333,3.396 67.679,3.396 67.679,9.351 		"/>
		<polygon fill="#2FB357" points="47.302,15.309 47.302,47.655 35.333,47.655 35.333,15.309 41.317,15.309 		"/>
		
			<radialGradient id="SVGID_5_" cx="63.5854" cy="41.9277" r="12.1882" gradientTransform="matrix(0.9964 0 0 1.0023 0.073 -0.3085)" gradientUnits="userSpaceOnUse">
			<stop  offset="0" style="stop-color:#FFCE4E"/>
			<stop  offset="1" style="stop-color:#F2C034"/>
		</radialGradient>
		<polyline fill="url(#SVGID_5_)" points="79.558,35.776 47.302,47.655 47.302,35.776 		"/>
		<polyline fill="#46AEE2" points="67.679,3.4 79.56,11.428 79.56,35.776 67.679,35.776 67.679,3.668 		"/>
		<polyline fill="#406FB5" points="67.679,3.396 79.56,35.776 67.679,35.776 		"/>
		<polyline fill="#B43328" points="35.333,15.303 67.679,3.396 67.679,15.303 		"/>
		<radialGradient id="SVGID_6_" cx="41.3174" cy="31.479" r="12.1957" gradientUnits="userSpaceOnUse">
			<stop  offset="0" style="stop-color:#01A760"/>
			<stop  offset="1" style="stop-color:#018F4B"/>
		</radialGradient>
		<polyline fill="url(#SVGID_6_)" points="47.302,47.655 35.333,15.303 47.302,15.303 		"/>
	</g>
	<rect x="73.023" y="29.852" fill="none" width="43.604" height="17.803"/>
	<text transform="matrix(1 0 0 1 81.9863 46.875)" fill="#4E4E4E" font-family="'OpenSans-Extrabold'" font-size="19.8648">EV</text>
	<g>
		<radialGradient id="SVGID_7_" cx="133.748" cy="7.9902" r="18.3444" gradientUnits="userSpaceOnUse">
			<stop  offset="0" style="stop-color:#FFCE4E"/>
			<stop  offset="1" style="stop-color:#F2C034"/>
		</radialGradient>
		<polyline fill="url(#SVGID_7_)" points="108.378,13.409 118.409,2.563 159.117,2.563 149.086,13.417 		"/>
		<radialGradient id="SVGID_8_" cx="126.3418" cy="20.2368" r="13.5871" gradientUnits="userSpaceOnUse">
			<stop  offset="0" style="stop-color:#01A760"/>
			<stop  offset="1" style="stop-color:#018F4B"/>
		</radialGradient>
		<polyline fill="url(#SVGID_8_)" points="108.378,13.417 131.776,13.417 144.306,18.741 136.255,27.057 		"/>
		<polyline fill="#B43328" points="128.841,18.756 144.325,18.756 133.929,29.514 114.956,29.514 		"/>
		<polyline fill="#406FB5" points="114.956,29.514 126.937,29.514 126.937,46.524 114.956,46.524 		"/>
	</g>
	<rect x="122.367" y="29.118" fill="none" width="43.604" height="17.803"/>
	<text transform="matrix(1 0 0 1 129.0977 46.1396)" fill="#4E4E4E" font-family="'OpenSans-Extrabold'" font-size="19.8648">air</text>
	<rect x="35.333" y="53.29" fill="none" width="120.033" height="8.541"/>
	<text transform="matrix(1 0 0 1 54.4912 59.2471)" fill="#4E4E4E" font-family="'OpenSans-Semibold'" font-size="6.9527">GDG Korea DevFair 2014</text>
</g>
</svg>
